<?xml version="1.0" encoding="UTF-8"?>
<svg id="Calque_2" data-name="Calque 2" xmlns="http://www.w3.org/2000/svg" viewBox="0 0 901.41 133.32">
  <defs>
    <style>
      .cls-1 {
        fill: #485089;
      }

      .cls-2 {
        fill: #fc8a4b;
      }
    </style>
  </defs>
  <g id="Calque_1-2" data-name="Calque 1">
    <g>
      <path class="cls-1" d="M0,102.39l12.07-14.48c5.1,6.84,10.73,10.33,17.43,10.33,8.72,0,13.28-5.23,13.28-15.56v-44.66H9.79v-17.43h54.58v60.89c0,23.2-11.67,34.6-33.8,34.6-12.61,0-23.74-4.83-30.58-13.68Z"/>
      <path class="cls-1" d="M79.92,67.53c0-27.89,21.73-48.55,51.36-48.55s51.36,20.52,51.36,48.55-21.86,48.55-51.36,48.55-51.36-20.65-51.36-48.55ZM160.66,67.53c0-17.84-12.61-30.04-29.37-30.04s-29.37,12.2-29.37,30.04,12.61,30.04,29.37,30.04,29.37-12.2,29.37-30.04Z"/>
      <path class="cls-1" d="M285.1,88.85c0,16.23-12.88,25.61-37.55,25.61h-48.55V20.59h45.87c23.47,0,35.54,9.79,35.54,24.41,0,9.39-4.83,16.63-12.47,20.65,10.46,3.35,17.17,11.4,17.17,23.2ZM220.6,36.95v22.13h21.59c10.59,0,16.36-3.75,16.36-11.13s-5.77-11-16.36-11h-21.59ZM263.24,86.57c0-7.91-6.03-11.67-17.3-11.67h-25.35v23.2h25.35c11.27,0,17.3-3.49,17.3-11.53Z"/>
      <path class="cls-1" d="M344.64,81.2v33.26h-21.73v-33.53l-36.34-60.35h23.07l25.08,41.71,25.08-41.71h21.32l-36.48,60.62Z"/>
    </g>
    <g>
      <path class="cls-1" d="M590.69,34.72v24.81h43.45v17.43h-43.45v34.2h-21.73V17.29h70.94v17.43h-49.22Z"/>
      <path class="cls-1" d="M654.66,17.29h21.73v93.88h-21.73V17.29Z"/>
      <path class="cls-1" d="M784.74,17.29v93.88h-17.84l-46.8-57v57h-21.46V17.29h17.97l46.67,57V17.29h21.46Z"/>
      <path class="cls-1" d="M806.99,17.29h42.65c30.71,0,51.77,18.51,51.77,46.94s-21.05,46.94-51.77,46.94h-42.65V17.29ZM848.57,93.33c18.64,0,30.84-11.13,30.84-29.1s-12.2-29.1-30.84-29.1h-19.85v58.2h19.85Z"/>
    </g>
    <g>
      <path class="cls-2" d="M526.93,51.67c-9.42,8.86-18.03,10.15-27.56,17.16-4.88,3.59-5.35,5.91-8.61,10.11-3.92,5.05-5.68-.67-5.51-4.71.34-7.84,14.04-18.69,19.54-23.97-1.66-.97-3.45-1.76-5.33-2.28-4.36-1.21-15.09-3.12-19.29-2.56-1.22.16-4.56.92-6.07,1.23-8.67,1.8-18.91,6.86-24.09,14.24-2.39,3.41-8.56,17.46-11.39,18.4-.82.27-1.76.12-2.61.13-.27-10.62,4.76-23.85,11.26-32.22,21.8-28.09,63.51-10.97,89.18-42.39,1.41-1.73,3.21-7.28,4.94-3.53,2.5,5.43,1.17,20.56-.21,26.62-2.35,10.35-6.72,16.7-14.24,23.77Z"/>
      <path class="cls-2" d="M431.32,64.4c-5.9,6.81-7.71,9.27-13.93,15.27-.52.5-2.55,2.17-2.08,2.78,3.32.61,6.43,2.05,9.73,2.75,16.53,3.48,35.52-.3,45.55-14.71,2.92-4.19,6.18-13.3,9.33-16.21,5.94-5.49,4.04,4.82,3.29,8.14-2.62,11.52-10.9,26.43-21.24,32.56-23.4,13.88-67.79,6.69-80.78,36.97-2.42,5.64-3.55-7.85-3.66-9.68-.95-16.8,3.8-31.35,16.14-42.88,10.6-9.9,25.05-10.5,34.05-23.13,1.25-1.75,2.86-7.59,5.55-4.82,2.19,2.25,2.04,7.52.12,10.26q-1.05,1.5-2.08,2.69Z"/>
    </g>
  </g>
</svg>